<svg width="14" height="18" viewBox="0 0 14 18" fill="none" xmlns="http://www.w3.org/2000/svg">
<path d="M13.5 16.5003V16.5V3C13.5 2.33696 13.2366 1.70107 12.7678 1.23223C12.2989 0.763392 11.663 0.5 11 0.5H3C2.33696 0.5 1.70107 0.763392 1.23223 1.23223C0.763392 1.70107 0.5 2.33696 0.5 3L0.5 16.5L0.5 16.5003C0.500094 16.6811 0.549248 16.8586 0.642228 17.0138C0.735208 17.1689 0.868532 17.296 1.028 17.3813C1.18747 17.4667 1.3671 17.5072 1.54778 17.4986C1.71939 17.4904 1.88584 17.4381 2.03115 17.347L7 14.669L11.9688 17.347C12.1142 17.4381 12.2806 17.4904 12.4522 17.4986C12.6329 17.5072 12.8125 17.4667 12.972 17.3813C13.1315 17.296 13.2648 17.1689 13.3578 17.0138C13.4508 16.8586 13.4999 16.6811 13.5 16.5003ZM2.64645 2.64645C2.74021 2.55268 2.86739 2.5 3 2.5H11C11.1326 2.5 11.2598 2.55268 11.3536 2.64645C11.4473 2.74021 11.5 2.86739 11.5 3V14.7384L7.52856 12.6514C7.37012 12.5527 7.18704 12.5003 7 12.5003C6.81296 12.5003 6.62988 12.5527 6.47145 12.6514L2.5 14.7384V3C2.5 2.86739 2.55268 2.74021 2.64645 2.64645Z" stroke="#00FF0A"/>
</svg>
