<svg width="39" height="39" viewBox="0 0 39 39" fill="none" xmlns="http://www.w3.org/2000/svg">
<g clip-path="url(#clip0)">
<path d="M38.4668 33.7213L30.8725 26.127C30.5297 25.7842 30.065 25.5938 29.5775 25.5938H28.3359C30.4383 22.9049 31.6875 19.5229 31.6875 15.8438C31.6875 7.0916 24.5959 0 15.8438 0C7.0916 0 0 7.0916 0 15.8438C0 24.5959 7.0916 31.6875 15.8438 31.6875C19.5229 31.6875 22.9049 30.4383 25.5938 28.3359V29.5775C25.5938 30.065 25.7842 30.5297 26.127 30.8725L33.7213 38.4668C34.4373 39.1828 35.5951 39.1828 36.3035 38.4668L38.4592 36.3111C39.1752 35.5951 39.1752 34.4373 38.4668 33.7213ZM15.8438 25.5938C10.4584 25.5938 6.09375 21.2367 6.09375 15.8438C6.09375 10.4584 10.4508 6.09375 15.8438 6.09375C21.2291 6.09375 25.5938 10.4508 25.5938 15.8438C25.5938 21.2291 21.2367 25.5938 15.8438 25.5938Z" fill="#1C3F73"/>
</g>
<defs>
<clipPath id="clip0">
<rect width="39" height="39" fill="white"/>
</clipPath>
</defs>
</svg>
